<svg xmlns="http://www.w3.org/2000/svg" version="1.1" xmlns:xlink="http://www.w3.org/1999/xlink" width="512" height="512" x="0" y="0" viewBox="0 0 512 512" style="enable-background:new 0 0 512 512" xml:space="preserve" class=""><g><path d="M256 81.011a174.972 174.972 0 1 0 123.727 51.248A174.417 174.417 0 0 0 256 81.011ZM368.417 368.4a158.93 158.93 0 1 1 46.572-112.417A158.48 158.48 0 0 1 368.417 368.4Zm1.134-56.152A121.574 121.574 0 1 1 225.33 137.616a5.71 5.71 0 0 1 7.2 7.257C203.7 230.362 276.494 315.6 363.769 303.8a5.715 5.715 0 0 1 5.782 8.451ZM248.007 46.061V8.022a7.993 7.993 0 1 1 15.986 0v38.039a7.993 7.993 0 1 1-15.986 0Zm106.068 24.093 19.019-32.909a7.976 7.976 0 1 1 13.8 7.994l-19.015 32.909a7.976 7.976 0 1 1-13.8-7.994Zm76.844 84.866a8 8 0 0 1 2.919-10.913l32.937-19.02a7.988 7.988 0 0 1 7.994 13.833l-32.938 18.991a8 8 0 0 1-10.912-2.891ZM125.1 45.239a7.976 7.976 0 1 1 13.8-7.994l19.02 32.909a7.976 7.976 0 1 1-13.8 7.994Zm386.886 210.747a8.008 8.008 0 0 1-7.993 8.021h-38.04a8.007 8.007 0 1 1 0-16.014h38.04a8 8 0 0 1 7.993 7.993ZM386.9 466.761a7.976 7.976 0 1 1-13.8 7.993l-19.019-32.908a7.983 7.983 0 0 1 13.8-8.022ZM34.34 128.036a7.947 7.947 0 0 1 10.86-2.949l32.937 19.02a7.962 7.962 0 1 1-7.937 13.8L37.26 138.92a7.969 7.969 0 0 1-2.92-10.884Zm443.32 255.957a7.936 7.936 0 0 1-10.885 2.891l-32.937-18.991a7.976 7.976 0 1 1 7.993-13.8l32.938 18.991a7.994 7.994 0 0 1 2.891 10.909Zm-213.667 81.946v38.039a7.993 7.993 0 1 1-15.986 0v-38.039a7.993 7.993 0 1 1 15.986 0ZM46.075 264.007H8.007a8.007 8.007 0 0 1 0-16.014h38.068a8.007 8.007 0 0 1 0 16.014Zm111.851 177.839-19.02 32.908a7.976 7.976 0 1 1-13.8-7.993l19.02-32.937a7.983 7.983 0 0 1 13.8 8.022Zm-76.845-84.838a7.979 7.979 0 0 1-2.947 10.885L45.2 386.884a7.962 7.962 0 0 1-7.937-13.8L70.2 354.089a7.969 7.969 0 0 1 10.881 2.919Z" fill="#000000" opacity="1" data-original="#000000" class=""></path></g></svg>