<svg xmlns="http://www.w3.org/2000/svg" version="1.1" xmlns:xlink="http://www.w3.org/1999/xlink" width="512" height="512" x="0" y="0" viewBox="0 0 512 512" style="enable-background:new 0 0 512 512" xml:space="preserve" class=""><g><linearGradient id="a" x2="512" y1="256" y2="256" gradientUnits="userSpaceOnUse"><stop offset="0" stop-color="#0053cc"></stop><stop offset=".274" stop-color="#0077da"></stop><stop offset=".765" stop-color="#00b3f0"></stop><stop offset="1" stop-color="#00caf9"></stop></linearGradient><path fill="url(#a)" d="M256 81.01c-96.49 0-174.989 78.5-174.989 174.99 0 96.474 78.5 174.961 174.989 174.961S430.99 352.474 430.99 256c0-96.49-78.5-174.99-174.99-174.99zm0 333.936c-87.659 0-158.974-71.3-158.974-158.946S168.341 97.025 256 97.025 414.975 168.341 414.975 256 343.659 414.946 256 414.946zm106.725-119.091c-38.754 5.241-77.048-10-102.427-40.753-25.112-30.431-32.656-70.687-20.191-107.653A13.712 13.712 0 0 0 222.821 130a129.593 129.593 0 1 0 153.731 186.126 13.711 13.711 0 0 0-13.83-20.267zm-128.8 66.925a113.571 113.571 0 0 1-10.383-216.061c-12.233 41.047-3.259 85.05 24.407 118.576 27.923 33.836 69.608 51.192 112.329 46.966a113.388 113.388 0 0 1-126.356 50.519zm-187.85-98.773H8.007a8.007 8.007 0 0 1 0-16.014h38.068a8.007 8.007 0 1 1 0 16.014zm111.9 177.835-19.019 32.909a8.008 8.008 0 0 1-13.866-8.014l19.02-32.909a8.007 8.007 0 1 1 13.865 8.014zm-32.891-396.61a8.007 8.007 0 1 1 13.868-8.009l19.02 32.937a8.008 8.008 0 1 1-13.872 8.01zm352.623 338.755a8 8 0 0 1-10.939 2.929L433.83 367.9a8.008 8.008 0 0 1 8.01-13.869l32.937 19.02a8.009 8.009 0 0 1 2.93 10.936zM354.056 70.16l19.02-32.937a8.008 8.008 0 1 1 13.869 8.009l-19.02 32.938a8.008 8.008 0 0 1-13.869-8.01zM247.993 46.047V8.007a8.007 8.007 0 0 1 16.014 0v38.04a8.007 8.007 0 0 1-16.014 0zm138.951 420.69a8.008 8.008 0 0 1-13.867 8.014l-19.02-32.909a8.008 8.008 0 0 1 13.867-8.014zM34.324 127.983a8.008 8.008 0 0 1 10.94-2.927l32.908 19.02a8.008 8.008 0 1 1-8.013 13.867l-32.909-19.02a8.008 8.008 0 0 1-2.926-10.94zM512 256a8.007 8.007 0 0 1-8.007 8.007h-38.039a8.007 8.007 0 0 1 0-16.014h38.039A8.007 8.007 0 0 1 512 256zm-81.1-100.986a8.008 8.008 0 0 1 2.929-10.939l32.938-19.02a8.008 8.008 0 1 1 8.009 13.869l-32.937 19.02a8.006 8.006 0 0 1-10.939-2.93zM264.007 465.925v38.068a8.007 8.007 0 0 1-16.014 0v-38.068a8.007 8.007 0 1 1 16.014 0zM81.1 356.956a8.008 8.008 0 0 1-2.926 10.94l-32.91 19.019a8.008 8.008 0 1 1-8.014-13.866l32.909-19.02a8.008 8.008 0 0 1 10.941 2.927z" opacity="1" data-original="url(#a)"></path></g></svg>